<?xml version="1.0" standalone="no"?>
<!DOCTYPE svg PUBLIC "-//W3C//DTD SVG 20010904//EN"
 "http://www.w3.org/TR/2001/REC-SVG-20010904/DTD/svg10.dtd">
<svg version="1.0" xmlns="http://www.w3.org/2000/svg"
 width="360.000000pt" height="360.000000pt" viewBox="0 0 360.000000 360.000000"
 preserveAspectRatio="xMidYMid meet">
<metadata>
Created by potrace 1.11, written by Peter Selinger 2001-2013
</metadata>
<g transform="translate(0.000000,360.000000) scale(0.100000,-0.100000)"
fill="#000000" stroke="none">
<path d="M1529 3585 c-685 -111 -1238 -584 -1447 -1237 -66 -205 -76 -278 -76
-548 0 -270 10 -343 76 -548 178 -557 613 -992 1170 -1170 205 -66 278 -76
548 -76 270 0 343 10 548 76 557 178 992 613 1170 1170 66 205 76 278 76 548
0 270 -10 343 -76 548 -178 557 -613 992 -1169 1170 -190 61 -274 74 -514 78
-156 2 -245 -1 -306 -11z m276 -1148 c0 -419 4 -506 21 -449 41 140 195 290
352 344 94 32 248 31 344 -1 208 -70 368 -268 380 -471 l3 -55 -480 -5 c-284
-3 -472 -9 -460 -14 114 -49 153 -72 207 -123 126 -120 178 -238 178 -408 0
-161 -50 -283 -161 -394 -95 -95 -236 -161 -342 -161 l-47 0 -2 477 -3 478
-36 -75 c-44 -90 -87 -146 -159 -205 -134 -110 -312 -150 -479 -109 -227 56
-411 268 -423 489 l-3 50 475 5 c278 3 467 9 455 14 -131 56 -228 134 -297
240 -107 165 -106 401 2 580 89 148 288 270 430 263 l45 -2 0 -468z"/>
</g>
</svg>
